<svg xmlns="http://www.w3.org/2000/svg" width="277" height="65" viewBox="0 0 454 131">
  <defs>
    <style>
      .cls-1 {
        fill: #fff;
        fill-rule: evenodd;
      }
    </style>
  </defs>
  <path class="cls-1" d="M141.625,97.733a30.338,30.338,0,0,0-30.238-30.37q-1.086,0-2.19.082a38.78,38.78,0,0,0-64.768,0q-1.1-.082-2.191-0.082a30.377,30.377,0,0,0-4.305,60.426v41.972A11.229,11.229,0,0,0,49.126,181H104.5a11.229,11.229,0,0,0,11.193-11.239V127.789A30.367,30.367,0,0,0,141.625,97.733ZM104.5,172.354H49.127a2.624,2.624,0,0,1-2.583-2.594V127.793a29.693,29.693,0,0,0,11.835-4.388,38.519,38.519,0,0,0,36.866,0,29.7,29.7,0,0,0,11.836,4.388V169.76A2.623,2.623,0,0,1,104.5,172.354Zm6.888-52.9a21.381,21.381,0,0,1-8.3-1.661,38.93,38.93,0,0,0,11.189-18.3,4.307,4.307,0,1,0-8.3-2.309,30.231,30.231,0,0,1-58.325,0,4.307,4.307,0,1,0-8.3,2.309,38.914,38.914,0,0,0,11.189,18.3,21.386,21.386,0,0,1-8.3,1.661,21.724,21.724,0,1,1,3.689-43.126,4.3,4.3,0,0,0,4.481-2.144,30.2,30.2,0,0,1,52.809,0,4.3,4.3,0,0,0,4.481,2.144A21.714,21.714,0,1,1,111.387,119.457Zm85.807-17.837v11.106H168.707v17.593h21.83v10.91h-21.83v28.994H155v-68.6h42.192Zm17.718,66a25.05,25.05,0,0,1-9.838-9.877A29.682,29.682,0,0,1,201.5,143a29.069,29.069,0,0,1,3.671-14.743,25.557,25.557,0,0,1,10.034-9.878,30.617,30.617,0,0,1,28.388,0,25.564,25.564,0,0,1,10.034,9.878A29.069,29.069,0,0,1,257.3,143a28.472,28.472,0,0,1-3.769,14.743,26.135,26.135,0,0,1-10.18,9.877,29.5,29.5,0,0,1-14.341,3.49A28.46,28.46,0,0,1,214.912,167.618Zm21.1-10.32a13.18,13.18,0,0,0,5.237-5.455A18.436,18.436,0,0,0,243.2,143q0-7.764-4.063-11.942a13.331,13.331,0,0,0-9.936-4.177,13.018,13.018,0,0,0-9.838,4.177Q215.4,135.235,215.4,143t3.867,11.941a12.7,12.7,0,0,0,9.74,4.177A14.2,14.2,0,0,0,236.008,157.3Zm39.4,10.32a25.044,25.044,0,0,1-9.838-9.877A29.682,29.682,0,0,1,262,143a29.059,29.059,0,0,1,3.671-14.743,25.557,25.557,0,0,1,10.034-9.878,30.617,30.617,0,0,1,28.388,0,25.564,25.564,0,0,1,10.034,9.878A29.069,29.069,0,0,1,317.794,143a28.472,28.472,0,0,1-3.769,14.743,26.142,26.142,0,0,1-10.18,9.877,29.506,29.506,0,0,1-14.341,3.49A28.46,28.46,0,0,1,275.407,167.618Zm21.1-10.32a13.178,13.178,0,0,0,5.236-5.455A18.436,18.436,0,0,0,303.7,143q0-7.764-4.063-11.942a13.331,13.331,0,0,0-9.936-4.177,13.018,13.018,0,0,0-9.838,4.177Q275.9,135.235,275.9,143t3.867,11.941a12.7,12.7,0,0,0,9.74,4.177A14.2,14.2,0,0,0,296.5,157.3Zm29.171-29.142a23.629,23.629,0,0,1,21.585-13.268,22.966,22.966,0,0,1,10.082,2.31,20.179,20.179,0,0,1,7.635,6.143V97.492h13.9v72.731h-13.9v-8.06a18.59,18.59,0,0,1-7.146,6.487,22.326,22.326,0,0,1-10.669,2.458,23.224,23.224,0,0,1-12.531-3.539,24.587,24.587,0,0,1-8.956-9.976,32.119,32.119,0,0,1-3.28-14.792A31.605,31.605,0,0,1,325.674,128.156Zm37.443,6.242a13.853,13.853,0,0,0-5.287-5.5,14.08,14.08,0,0,0-7.146-1.917,13.841,13.841,0,0,0-7.047,1.868A14.032,14.032,0,0,0,338.4,134.3a17.149,17.149,0,0,0-2.006,8.5,17.7,17.7,0,0,0,2.006,8.6,14.465,14.465,0,0,0,5.287,5.652,13.375,13.375,0,0,0,7,1.965,14.089,14.089,0,0,0,7.146-1.916,13.847,13.847,0,0,0,5.287-5.5A19.875,19.875,0,0,0,363.117,134.4Zm28.143-27.422a8.092,8.092,0,0,1,0-11.5,9,9,0,0,1,12.041,0,8.092,8.092,0,0,1,0,11.5A9,9,0,0,1,391.26,106.976Zm12.774,8.8v54.45h-13.7v-54.45h13.7Zm61.574,31.353H425.962a13.553,13.553,0,0,0,4.111,9.239,12.648,12.648,0,0,0,8.909,3.341q7.635,0,10.866-6.585h14.781a24.8,24.8,0,0,1-9.006,12.925q-6.657,5.063-16.348,5.062a28.192,28.192,0,0,1-14.048-3.49,24.492,24.492,0,0,1-9.691-9.877A30.361,30.361,0,0,1,412.061,143a30.919,30.919,0,0,1,3.427-14.842,23.957,23.957,0,0,1,9.594-9.828,30.687,30.687,0,0,1,28.044-.1,23.484,23.484,0,0,1,9.5,9.484,28.8,28.8,0,0,1,3.377,14.1A32.612,32.612,0,0,1,465.608,147.126Zm-13.8-9.239a10.937,10.937,0,0,0-3.817-8.5,13.506,13.506,0,0,0-9.1-3.194,12.409,12.409,0,0,0-8.566,3.1,13.626,13.626,0,0,0-4.258,8.6h25.745Z" transform="translate(-12 -50)"/>
</svg>
